<svg xmlns="http://www.w3.org/2000/svg" viewBox="0 0 500 500" role="img" aria-label="雙週訂閱配花（佔位示意圖）">
<rect width="500" height="500" fill="#FAF6F0"/>
<circle cx="250" cy="222" r="124" fill="#FFFFFF" opacity=".45"/>
<g stroke="#475A4B" stroke-width="5" fill="none" stroke-linecap="round"><path d="M250 300 206 196"/><path d="M250 300 296 202"/></g>
<g fill="#8A9B7E" opacity=".85"><ellipse cx="212" cy="268" rx="32" ry="13" transform="rotate(-28 212 268)"/><ellipse cx="292" cy="264" rx="30" ry="12" transform="rotate(24 292 264)"/></g>
<circle cx="206" cy="196" r="24" fill="#D98B76" stroke="#475A4B" stroke-width="4"/><circle cx="206" cy="196" r="8" fill="#FFFFFF"/><circle cx="296" cy="202" r="22" fill="#E8B4A0" stroke="#475A4B" stroke-width="4"/><circle cx="296" cy="202" r="7" fill="#FFFFFF"/>
<rect x="126" y="300" width="248" height="118" rx="10" fill="#FFFFFF" stroke="#475A4B" stroke-width="5"/>
<path d="M175 300v118" stroke="#475A4B" stroke-width="4" opacity=".35"/><path d="M224 300v118" stroke="#475A4B" stroke-width="4" opacity=".35"/><path d="M273 300v118" stroke="#475A4B" stroke-width="4" opacity=".35"/><path d="M322 300v118" stroke="#475A4B" stroke-width="4" opacity=".35"/>
<rect x="114" y="288" width="272" height="24" rx="10" fill="#D98B76" stroke="#475A4B" stroke-width="5"/>
<g transform="translate(250 358)" stroke="#475A4B" stroke-width="6" fill="none" stroke-linecap="round"><path d="M-22-8a22 22 0 1 1 6 22"/><path d="M-24-18v12h12"/></g>
</svg>
